<?xml version="1.0" encoding="utf-8"?>
<!-- Generator: Adobe Illustrator 25.2.0, SVG Export Plug-In . SVG Version: 6.00 Build 0)  -->
<svg version="1.2" baseProfile="tiny" id="Layer_1" xmlns="http://www.w3.org/2000/svg" xmlns:xlink="http://www.w3.org/1999/xlink"
	 x="0px" y="0px" viewBox="0 0 200 130" overflow="visible" xml:space="preserve">
<g>
	<path fill="#FFFFFF" d="M187.8,130H12.2C5.5,130,0,124.5,0,117.8V12.2C0,5.5,5.5,0,12.2,0h175.5c6.8,0,12.2,5.5,12.2,12.2v105.5
		C200,124.5,194.5,130,187.8,130z"/>
	<path fill="#E9E9E9" d="M187.8,4c4.5,0,8.2,3.7,8.2,8.2v105.5c0,4.5-3.7,8.2-8.2,8.2H12.2c-4.5,0-8.2-3.7-8.2-8.2V12.2
		C4,7.7,7.7,4,12.2,4H187.8 M187.8,0H12.2C5.5,0,0,5.5,0,12.2v105.5c0,6.8,5.5,12.2,12.2,12.2h175.5c6.8,0,12.2-5.5,12.2-12.2V12.2
		C200,5.5,194.5,0,187.8,0L187.8,0z"/>
</g>
<g>
	<path fill="#179BD7" d="M130.2,43.1c-0.1,0.5-0.2,1.1-0.3,1.6c-3.6,18.7-16.1,25.2-32,25.2h-8.1c-1.9,0-3.6,1.4-3.9,3.3l-4.2,26.3
		l-1.2,7.5c-0.2,1.1,0.6,2.2,1.7,2.4c0.1,0,0.2,0,0.3,0H97c1.7,0,3.1-1.2,3.4-2.9l0.1-0.7l2.7-17.2l0.2-0.9c0.3-1.7,1.7-2.9,3.4-2.9
		h2.2c13.9,0,24.8-5.7,28-22c1.3-6.8,0.6-12.5-2.9-16.6C133,44.9,131.7,43.9,130.2,43.1L130.2,43.1z"/>
	<path fill="#253064" d="M126.4,41.6c-1.2-0.3-2.3-0.6-3.5-0.8c-2.4-0.4-4.8-0.5-7.1-0.5H94.1c-1.7,0-3.2,1.2-3.4,2.9L86,72.4
		l-0.1,0.9c0.3-1.9,1.9-3.3,3.9-3.3h8.1c15.9,0,28.4-6.5,32-25.2c0.1-0.6,0.2-1.1,0.3-1.6c-1-0.5-2-0.9-3-1.3
		C127,41.8,126.7,41.7,126.4,41.6L126.4,41.6z"/>
	<path fill="#263C7F" d="M90.7,43.2c0.3-1.7,1.7-2.9,3.4-2.9h21.7c2.6,0,5,0.2,7.1,0.5c1.5,0.2,2.9,0.6,4.4,1c1.1,0.4,2.1,0.8,3,1.3
		c1.1-6.9,0-11.6-3.7-15.9c-4.1-4.7-11.6-6.7-21.1-6.7H77.8c-1.9,0-3.6,1.4-3.9,3.3L62.4,96.8c-0.2,1.3,0.7,2.5,2,2.7
		c0.1,0,0.2,0,0.4,0h17.1L86,72.4L90.7,43.2z"/>
</g>
</svg>
