<?xml version="1.0" encoding="utf-8"?>
<!-- Generator: Adobe Illustrator 25.2.0, SVG Export Plug-In . SVG Version: 6.00 Build 0)  -->
<svg version="1.2" baseProfile="tiny" id="Layer_1" xmlns="http://www.w3.org/2000/svg" xmlns:xlink="http://www.w3.org/1999/xlink"
	 x="0px" y="0px" viewBox="0 0 200 130" overflow="visible" xml:space="preserve">
<g>
	<path fill="#FFFFFF" d="M187.8,130H12.2C5.5,130,0,124.5,0,117.8V12.2C0,5.5,5.5,0,12.2,0h175.5c6.8,0,12.2,5.5,12.2,12.2v105.5
		C200,124.5,194.5,130,187.8,130z"/>
	<path fill="#E9E9E9" d="M187.8,4c4.5,0,8.2,3.7,8.2,8.2v105.5c0,4.5-3.7,8.2-8.2,8.2H12.2c-4.5,0-8.2-3.7-8.2-8.2V12.2
		C4,7.7,7.7,4,12.2,4H187.8 M187.8,0H12.2C5.5,0,0,5.5,0,12.2v105.5c0,6.8,5.5,12.2,12.2,12.2h175.5c6.8,0,12.2-5.5,12.2-12.2V12.2
		C200,5.5,194.5,0,187.8,0L187.8,0z"/>
</g>
<path fill="#2E4999" d="M124.8,38.5c-11.6,0-22,6-22,17.2c0,12.8,18.4,13.7,18.4,20.1c0,2.7-3.1,5.1-8.4,5.1
	c-7.5,0-13.1-3.4-13.1-3.4l-2.4,11.2c0,0,6.5,2.9,15,2.9c12.7,0,22.7-6.3,22.7-17.7c0-13.5-18.5-14.4-18.5-20.3
	c0-2.1,2.5-4.4,7.8-4.4c5.9,0,10.8,2.5,10.8,2.5l2.3-10.9C137.5,40.7,132.2,38.5,124.8,38.5z M18.4,39.3l-0.3,1.6
	c0,0,4.9,0.9,9.3,2.7c5.7,2,6.1,3.2,7,6.9l10.4,40.1h14l21.5-51.4H66.4l-13.8,35l-5.6-29.6c-0.5-3.4-3.1-5.3-6.3-5.3
	C40.6,39.3,18.4,39.3,18.4,39.3z M85.9,39.3L75,90.7h13.3l10.9-51.4L85.9,39.3L85.9,39.3z M160,39.3c-3.2,0-4.9,1.7-6.1,4.7
	l-19.5,46.7h13.9l2.7-7.8h17l1.6,7.8h12.3l-10.7-51.4H160z M161.8,53.2l4.1,19.3h-11.1L161.8,53.2z"/>
</svg>
