<?xml version="1.0" encoding="utf-8"?>
<!-- Generator: Adobe Illustrator 25.2.0, SVG Export Plug-In . SVG Version: 6.00 Build 0)  -->
<svg version="1.2" baseProfile="tiny" id="Mono-Icon"
	 xmlns="http://www.w3.org/2000/svg" xmlns:xlink="http://www.w3.org/1999/xlink" x="0px" y="0px" viewBox="0 0 60 60"
	 overflow="visible" xml:space="preserve">
<path fill="#FFFFFF" d="M60,30c0,16.6-13.4,30-30,30S0,46.6,0,30S13.4,0,30,0S60,13.4,60,30z M9.1,29.3c0.1,0.5,0.4,0.8,0.8,1.2
	c4.7,4.8,9.5,9.5,14.2,14.3c0.3,0.3,0.7,0.5,1.1,0.6c0.2,0,0.3,0,0.5,0c0.4-0.1,0.7-0.3,1-0.6c7.9-7.9,15.9-15.9,23.8-23.8
	c0.7-0.7,0.8-1.7,0-2.5c-1.1-1.1-2.2-2.2-3.4-3.3c-0.2-0.2-0.4-0.4-0.7-0.5c-0.7-0.3-1.3,0-1.8,0.5c-6.3,6.3-12.6,12.6-18.9,18.9
	c-0.1,0.1-0.1,0.2-0.2,0.3c-0.2-0.2-0.3-0.4-0.5-0.5c-3.1-3.2-6.3-6.3-9.4-9.5c-0.8-0.8-1.7-0.8-2.5,0c-1,1-2,2-3.1,3
	c-0.4,0.4-0.7,0.7-0.8,1.2C9.1,28.9,9.1,29.1,9.1,29.3z"/>
</svg>
