<?xml version="1.0" encoding="utf-8"?>
<!-- Generator: Adobe Illustrator 25.2.0, SVG Export Plug-In . SVG Version: 6.00 Build 0)  -->
<svg version="1.2" baseProfile="tiny" id="Layer_1" xmlns="http://www.w3.org/2000/svg" xmlns:xlink="http://www.w3.org/1999/xlink"
	 x="0px" y="0px" viewBox="0 0 200 200" overflow="visible" xml:space="preserve">
<path fill-rule="evenodd" fill="#020203" d="M155.6,0H44.2C19.8,0,0,19.8,0,44.2v111.5C0,180.1,19.8,200,44.3,200h111.4
	c24.4,0,44.3-19.8,44.3-44.3V44.2C199.9,19.8,180.1,0,155.6,0z"/>
<g id="layer1" transform="translate(52.390088,-25.058597)">
	<path id="path1009" fill="#FFFFFF" d="M-14.4,66.8l48.1,64.3l-48.4,52.3h10.9l42.4-45.8l34.2,45.8h37.1l-50.8-67.9l45.1-48.7H93.3
		l-39,42.2L22.7,66.8H-14.4z M1.6,74.8h17l75.2,100.6h-17L1.6,74.8z"/>
</g>
</svg>
