<?xml version="1.0" encoding="utf-8"?>
<!-- Generator: Adobe Illustrator 25.2.0, SVG Export Plug-In . SVG Version: 6.00 Build 0)  -->
<svg version="1.2" baseProfile="tiny" id="Layer_1" xmlns="http://www.w3.org/2000/svg" xmlns:xlink="http://www.w3.org/1999/xlink"
	 x="0px" y="0px" viewBox="0 0 384 384" overflow="visible" xml:space="preserve">
<path fill="#FFFFFF" d="M28.5,61.2c2.5-5.3,6.6-6.9,12.3-6.8c13.4,0.2,26.9,0,40.4,0.1c6.4,0,9.2,2.1,10.9,8.3
	c2.6,9.1,5.2,18.2,7.8,27.3c0.1,0.2,0.2,0.6,0.4,1.1c1.2,0,2.5,0,3.9,0c75.3,0,150.4,0,225.7,0c1.6,0,3.1-0.1,4.6,0.2
	c5.7,1.3,8.2,6.5,6.3,13c-6.4,22.3-12.7,44.6-19.1,66.9c-5.6,19.4-11.1,39-16.7,58.4c-1.7,6-4.6,8.2-10.8,8.2
	c-51.4,0-102.7,0.1-154.1-0.1c-3.6,0-5.1,1.1-6.5,4.2c-3.4,7.6,0.5,14.2,8.9,14.2c50.3,0,100.7,0,151.1,0c1.3,0,2.7-0.1,3.9,0.2
	c4.7,0.9,7.8,5.2,7.4,9.8c-0.5,4.7-4.3,8.3-9.3,8.3c-9.4,0.1-18.8,0-28.1,0c-1.1,0-2.2,0-3.4,0.2c7.5,1.8,13.6,5.6,17.9,12
	c4.2,6.4,5.6,13.4,4.1,21c-2.5,12.9-14.5,22.2-27.9,21.8c-13.3-0.4-24.3-10.4-26.3-24.1c-2.1-13.8,6.4-25.4,22.7-30.8
	c-27.9,0-55.3,0-82.8,0c7.4,1.8,13.4,5.6,17.6,11.8c4.3,6.4,5.8,13.3,4.3,20.9c-2.5,13-14.2,22.4-27.6,22.1
	c-13.5-0.2-24.5-10.3-26.6-24.1c-2.1-13.8,6.4-25.4,23-31c-7,0-13.5,0-19.9,0c-22.2,0-35.3-21-25.3-40.8c2.1-4.2,2.5-7.8,1.2-12.3
	c-14.2-48.5-28.1-97.2-42-146c-0.2-0.8-0.5-1.6-0.8-2.6c-1.9,0-3.8,0-5.6,0c-9.8,0-19.6-0.2-29.3,0.1c-5.8,0.2-10-1.6-12.4-6.8
	C28.5,64.4,28.5,62.8,28.5,61.2z"/>
</svg>
