<?xml version="1.0" encoding="utf-8"?>
<!-- Generator: Adobe Illustrator 25.2.0, SVG Export Plug-In . SVG Version: 6.00 Build 0)  -->
<svg version="1.2" baseProfile="tiny" id="Layer_1" xmlns="http://www.w3.org/2000/svg" xmlns:xlink="http://www.w3.org/1999/xlink"
	 x="0px" y="0px" viewBox="0 0 200 200" overflow="visible" xml:space="preserve">
<g id="tiktok_00000135675918455325019020000010097722917482457499_">
	<path id="frame_00000127731629631656517520000017583050423115779247_" fill="#020203" d="M44.2,0h111.5C180.1,0,200,19.8,200,44.3
		v111.4c0,24.4-19.8,44.3-44.3,44.3H44.2C19.9,200.1,0,180.2,0,155.8V44.2C0,19.8,19.8,0,44.2,0z"/>
	<g id="logo_00000040567289238457332530000012839013301416795027_">
		<g>
			<path fill="#69C4D0" d="M82.9,76.5v7.7c-25.2,0.9-45.5,21.6-45.5,47.1c0,10.9,3.7,21,10,29c-11-8.6-18.1-22.1-18.1-37.1
				c0-26,21.1-47.1,47.1-47.1C78.6,76.1,80.8,76.2,82.9,76.5z"/>
			<path fill="#69C4D0" d="M124.4,29.7h-18.5v101.5c0,11.9-9.6,21.5-21.5,21.5c-8,0-15-4.4-18.7-10.9c3.1,1.8,6.7,2.8,10.6,2.8
				c11.9,0,21.5-9.6,21.5-21.5V21.6h25.7C123.6,24.4,123.9,27.1,124.4,29.7z"/>
			<path fill="#69C4D0" d="M159.1,57.2v7.2c-6.6-1.5-12.4-4.9-17.1-9.5c-1.3-1.3-2.6-2.8-3.7-4.4C144.2,54.7,151.4,57.2,159.1,57.2z
				"/>
		</g>
		<path fill="#FFFFFF" d="M159.1,64.3v18.5c-13.3,0-25.5-4.2-35.5-11.4v51.8c0,18.2-10.4,34.1-25.6,41.9c-6.4,3.3-13.7,5.2-21.5,5.2
			c-10.9,0-21-3.7-28.9-10l0,0c-6.3-8-10-18.1-10-29c0-25.4,20.2-46.2,45.5-47.1v18.5c-2-0.6-4.2-1-6.5-1
			c-11.9,0-21.5,9.6-21.5,21.5c0,8,4.4,15,10.9,18.7c3.7,6.5,10.7,10.9,18.7,10.9c11.9,0,21.5-9.6,21.5-21.5V29.7h18.5
			c1.5,6.6,4.9,12.4,9.5,17.1c1.3,1.4,2.8,2.6,4.4,3.7c1.1,1.5,2.4,3,3.7,4.4C146.7,59.5,152.4,62.8,159.1,64.3z"/>
		<g>
			<path fill="#E83658" d="M90.9,84.6v26.2c-2-0.6-4.2-1-6.5-1c-11.9,0-21.5,9.6-21.5,21.5c0,3.9,1,7.5,2.8,10.6
				c-6.5-3.7-10.9-10.7-10.9-18.7c0-11.9,9.6-21.5,21.5-21.5c2.2,0,4.4,0.4,6.5,1V84.2c0.5,0,1.1,0,1.6,0
				C86.6,84.1,88.9,84.3,90.9,84.6z"/>
			<path fill="#E83658" d="M138.4,50.5c-1.6-1.1-3-2.4-4.4-3.7c-4.6-4.6-8-10.5-9.5-17.1h7.2C131.7,37.5,134.1,44.6,138.4,50.5z"/>
			<path fill="#E83658" d="M167.2,65.3v25.6c-13.3,0-25.5-4.2-35.5-11.4v51.8c0,18.2-10.4,34.1-25.6,41.9
				c-6.4,3.3-13.7,5.2-21.5,5.2c-15,0-28.4-7.1-37-18.1c8,6.2,18,10,28.9,10c7.7,0,15-1.9,21.5-5.2c15.2-7.8,25.6-23.7,25.6-41.9
				V71.4c10,7.2,22.3,11.4,35.5,11.4V64.3C161.7,64.9,164.4,65.3,167.2,65.3z"/>
		</g>
	</g>
</g>
</svg>
