<?xml version="1.0" encoding="utf-8"?>
<!-- Generator: Adobe Illustrator 25.2.0, SVG Export Plug-In . SVG Version: 6.00 Build 0)  -->
<svg version="1.2" baseProfile="tiny" id="Layer_1" xmlns="http://www.w3.org/2000/svg" xmlns:xlink="http://www.w3.org/1999/xlink"
	 x="0px" y="0px" viewBox="0 0 200 130" overflow="visible" xml:space="preserve">
<g>
	<path fill="#FFFFFF" d="M187.8,130H12.2C5.5,130,0,124.5,0,117.8V12.2C0,5.5,5.5,0,12.2,0h175.5c6.8,0,12.2,5.5,12.2,12.2v105.5
		C200,124.5,194.5,130,187.8,130z"/>
	<path fill="#E9E9E9" d="M187.8,4c4.5,0,8.2,3.7,8.2,8.2v105.5c0,4.5-3.7,8.2-8.2,8.2H12.2c-4.5,0-8.2-3.7-8.2-8.2V12.2
		C4,7.7,7.7,4,12.2,4H187.8 M187.8,0H12.2C5.5,0,0,5.5,0,12.2v105.5c0,6.8,5.5,12.2,12.2,12.2h175.5c6.8,0,12.2-5.5,12.2-12.2V12.2
		C200,5.5,194.5,0,187.8,0L187.8,0z"/>
</g>
<g>
	<path fill="#113C63" d="M145.7,43.1c-0.1,0.2-0.2,0.4-0.3,0.6c-0.7,1.6-1.9,2.5-3.6,2.6c-0.3,0-0.7,0-1,0c-27.2,0-54.4,0-81.6,0
		c-0.9,0-1.9-0.1-2.7-0.5c-1.5-0.7-2.2-2-2.2-3.7c0-1.7,0.9-3,2.4-3.7c2.5-1.2,5-2.3,7.5-3.4c11.1-5,22.2-10,33.4-15
		c0.5-0.2,1.1-0.5,1.6-0.7c0.5,0,1,0,1.4,0c0.6,0.3,1.3,0.5,1.9,0.8c13.2,6,26.5,11.9,39.7,17.8c1.6,0.7,2.9,1.7,3.4,3.5
		C145.7,42,145.7,42.5,145.7,43.1z"/>
	<path fill="#113C63" d="M145.7,106.9c-1.1,3-2.1,3.7-5.3,3.7c-27.1,0-54.2,0-81.2,0c-1.6,0-3-0.4-4-1.7c-1.8-2.5-0.4-6.1,2.7-6.5
		c0.5-0.1,1.1-0.1,1.6-0.1c27,0,54,0,81,0c3.2,0,4.2,0.7,5.3,3.7C145.7,106.3,145.7,106.6,145.7,106.9z"/>
	<path fill="#113C63" d="M135.4,91.5c0.7,0.1,1.4,0.1,2.1,0.3c1.9,0.5,3.2,2.4,3,4.3c-0.2,2.1-1.7,3.6-3.8,3.8c-0.4,0-0.8,0-1.2,0
		c-23.6,0-47.3,0-70.9,0c-0.7,0-1.4,0-2.1-0.2c-1.9-0.6-3.1-2.5-2.8-4.4c0.3-2,1.9-3.5,3.9-3.6c0.4,0,0.8,0,1.2,0
		c0-12.5,0-24.9,0-37.3c-0.5-0.1-0.9-0.1-1.4-0.2c-0.9-0.2-1.6-1-1.6-2c0-0.9,0.6-1.7,1.5-2c0.4-0.1,0.8-0.1,1.2-0.1
		c23.8,0,47.5,0,71.3,0c0.3,0,0.5,0,0.8,0c1.2,0.2,2,1,1.9,2.1c0,1.1-0.8,1.9-2.1,2c-0.3,0-0.6,0-0.9,0.1
		C135.4,66.7,135.4,79.1,135.4,91.5z M106.2,91.5c0-12.4,0-24.8,0-37.3c-4.1,0-8.3,0-12.4,0c0,12.5,0,24.8,0,37.3
		C98,91.5,102.1,91.5,106.2,91.5z M114.6,91.5c4.2,0,8.3,0,12.4,0c0-12.5,0-24.8,0-37.2c-4.2,0-8.2,0-12.4,0
		C114.6,66.7,114.6,79.1,114.6,91.5z M73.1,54.3c0,12.5,0,24.8,0,37.3c4.1,0,8.2,0,12.3,0c0-12.4,0-24.8,0-37.3
		C81.3,54.3,77.3,54.3,73.1,54.3z"/>
</g>
</svg>
