<?xml version="1.0" encoding="utf-8"?>
<!-- Generator: Adobe Illustrator 25.2.0, SVG Export Plug-In . SVG Version: 6.00 Build 0)  -->
<svg version="1.2" baseProfile="tiny" id="Layer_1" xmlns="http://www.w3.org/2000/svg" xmlns:xlink="http://www.w3.org/1999/xlink"
	 x="0px" y="0px" viewBox="0 0 200 200" overflow="visible" xml:space="preserve">
<g id="youtube_00000151531848714200185490000014575996153341105051_">
	<path id="framr_00000109744999162460601710000000357447547297756334_" fill="#E52621" d="M44.2,0h111.5C180.1,0,200,19.8,200,44.3
		v111.4c0,24.4-19.8,44.3-44.3,44.3H44.2C19.9,200.1,0,180.2,0,155.8V44.2C0,19.8,19.8,0,44.2,0z"/>
	<path id="logo_00000000218731422853323440000009871564823580557746_" fill="#FFFFFF" d="M170.7,64.3c-1.2-4.7-5.1-10.9-13-13.1
		c-10.4-2.7-37-2.8-57.6-3.1l0,0c-10.3,0.1-22.1,0.2-32.6,0.7c-10.5,0.4-19.8,1.1-25,2.4c-8,2.2-11.8,8.4-13,13.1
		C27.4,71,26.4,89,26.4,99.9s1,29,3.1,35.7c1.2,4.7,5.1,10.9,13,13.1c10.4,2.7,37,2.8,57.6,3.1l0,0c10.3-0.1,22.1-0.2,32.6-0.7
		c10.5-0.4,19.8-1.1,25-2.4c8-2.2,11.8-8.4,13-13.1c2.1-6.7,3.1-24.7,3.1-35.7S172.7,71,170.7,64.3z M84.9,121.8V78.1l38.5,21.9
		L84.9,121.8z"/>
</g>
</svg>
