<?xml version="1.0" encoding="utf-8"?>
<!-- Generator: Adobe Illustrator 25.2.0, SVG Export Plug-In . SVG Version: 6.00 Build 0)  -->
<svg version="1.2" baseProfile="tiny" id="Layer_1" xmlns="http://www.w3.org/2000/svg" xmlns:xlink="http://www.w3.org/1999/xlink"
	 x="0px" y="0px" viewBox="0 0 200 200" overflow="visible" xml:space="preserve">
<g>
	<g>
		<path fill="#141517" d="M100.2,42.2c-2.7,0-5-1.6-6-4.1c-1-2.5-0.3-5.3,1.6-7.1c6.4-6,13.2-11.6,20.3-16.6
			c13.9-10,19.8-11.6,25.4-11c3.8,0.4,7.6,1.9,10.7,4.1c3.8,2.7,6.3,6.5,7.3,10.7c2.4,10.9-6.8,18.8-6.9,18.9
			c-3.7,3.1-8.6,4.8-13.6,5l-0.2,0L100.2,42.2C100.2,42.2,100.2,42.2,100.2,42.2z M139.4,14c-0.9,0-2,0.2-3.8,0.9
			c-3.2,1.3-7.6,4-13.4,8.2c-3.8,2.7-7.5,5.6-11.1,8.6l27.4,0c1.6-0.1,4.5-0.5,7.1-2.6c0.4-0.4,4.2-4.3,3.3-8.5
			c-0.5-2.3-3.2-6-8.7-6.6C140,14,139.7,14,139.4,14z M145.7,29C145.7,29,145.7,29,145.7,29C145.7,29,145.7,29,145.7,29z"/>
		<path fill="#141517" d="M99.8,42.2C99.8,42.2,99.8,42.2,99.8,42.2l-38.6,0l-0.1,0c-5-0.2-9.9-2-13.6-5c-0.1-0.1-9.3-8-6.9-18.9
			c0.9-4.3,3.5-8,7.3-10.7c3.1-2.2,6.9-3.7,10.7-4.1c5.6-0.6,11.5,1,25.4,11c7,5,13.8,10.6,20.3,16.6c2,1.8,2.6,4.6,1.6,7.1
			C104.9,40.6,102.5,42.2,99.8,42.2z M61.5,31.6l27.4,0c-3.6-3-7.3-5.9-11.1-8.6c-13.3-9.6-16.4-9.2-18.1-9
			c-5.4,0.6-8.2,4.2-8.7,6.6c-0.9,4.2,2.9,8.1,3.3,8.5C56.9,31.1,59.9,31.6,61.5,31.6z M54.3,29C54.3,29,54.3,29,54.3,29
			C54.3,29,54.3,29,54.3,29z"/>
	</g>
	<g>
		<path fill="#141517" d="M23.8,50.5c-2.4,0-4.4,2-4.4,4.4v27.4c0,2.4,2,4.4,4.4,4.4h71V50.5H23.8z"/>
		<path fill="#141517" d="M176.2,50.5h-71v36.3h71c2.4,0,4.4-2,4.4-4.4V55C180.6,52.5,178.6,50.5,176.2,50.5z"/>
	</g>
	<g>
		<path fill="#141517" d="M32.5,98.1c-2.4,0-4.4,2-4.4,4.4v89.7c0,2.4,2,4.4,4.4,4.4h62.3V98.1H32.5z"/>
		<path fill="#141517" d="M167.5,98.1h-62.3v98.5h62.3c2.4,0,4.4-2,4.4-4.4v-89.7C171.9,100.1,169.9,98.1,167.5,98.1z"/>
	</g>
</g>
</svg>
