<?xml version="1.0" encoding="utf-8"?>
<!-- Generator: Adobe Illustrator 25.2.0, SVG Export Plug-In . SVG Version: 6.00 Build 0)  -->
<svg version="1.2" baseProfile="tiny" id="Layer_1" xmlns="http://www.w3.org/2000/svg" xmlns:xlink="http://www.w3.org/1999/xlink"
	 x="0px" y="0px" viewBox="0 0 200 130" overflow="visible" xml:space="preserve">
<g>
	<path fill="#FFFFFF" d="M187.8,130H12.2C5.5,130,0,124.5,0,117.8V12.2C0,5.5,5.5,0,12.2,0h175.5c6.8,0,12.2,5.5,12.2,12.2v105.5
		C200,124.5,194.5,130,187.8,130z"/>
	<path fill="#E9E9E9" d="M187.8,4c4.5,0,8.2,3.7,8.2,8.2v105.5c0,4.5-3.7,8.2-8.2,8.2H12.2c-4.5,0-8.2-3.7-8.2-8.2V12.2
		C4,7.7,7.7,4,12.2,4H187.8 M187.8,0H12.2C5.5,0,0,5.5,0,12.2v105.5c0,6.8,5.5,12.2,12.2,12.2h175.5c6.8,0,12.2-5.5,12.2-12.2V12.2
		C200,5.5,194.5,0,187.8,0L187.8,0z"/>
</g>
<g>
	<path fill="#EB621D" d="M115.9,93.6H84.1V36.4h31.8L115.9,93.6z"/>
	<path fill="#E41522" d="M86.1,65c0-11.6,5.4-21.9,13.9-28.6c-6.4-5-14.3-7.8-22.5-7.8c-20.1,0-36.4,16.3-36.4,36.4
		s16.3,36.4,36.4,36.4c8.2,0,16.1-2.7,22.5-7.8C91.5,86.9,86.1,76.6,86.1,65"/>
	<path fill="#F59E1F" d="M158.8,65c0,20.1-16.3,36.4-36.4,36.4c-8.2,0-16.1-2.7-22.5-7.8c8.5-6.7,13.9-17,13.9-28.6
		s-5.4-21.9-13.9-28.6c6.4-5,14.3-7.8,22.5-7.8C142.6,28.6,158.8,44.9,158.8,65"/>
</g>
</svg>
