<?xml version="1.0" encoding="utf-8"?>
<!-- Generator: Adobe Illustrator 25.2.0, SVG Export Plug-In . SVG Version: 6.00 Build 0)  -->
<svg version="1.2" baseProfile="tiny" id="Layer_1" xmlns="http://www.w3.org/2000/svg" xmlns:xlink="http://www.w3.org/1999/xlink"
	 x="0px" y="0px" viewBox="0 0 200 200" overflow="visible" xml:space="preserve">
<path fill-rule="evenodd" fill="#020203" d="M155.6,0H44.2C19.8,0,0,19.8,0,44.2v111.5C0,180.1,19.8,200,44.3,200h111.4
	c24.4,0,44.3-19.8,44.3-44.3V44.2C199.9,19.8,180.1,0,155.6,0z"/>
<circle fill-rule="evenodd" fill="#1ED760" cx="100" cy="100" r="89.7"/>
<g>
	<path fill-rule="evenodd" fill="#020203" d="M170,82.4c0,6.9-7.3,11.2-13.4,7.7c-4.1-2.4-8.4-4.5-12.8-6.2
		c-8.7-3.5-17.8-5.8-27.1-7.5c-6.4-1.1-12.9-1.9-19.4-2.3C90.6,73.7,83.8,73.7,77,74c-7.8,0.4-15.5,1.3-23.1,2.9
		c-2.8,0.6-5.6,1.4-8.4,2.1c-1.7,0.4-3.4,0.5-5.1,0c-3.7-1.1-6.3-4.4-6.4-8.3c-0.1-3.8,2.2-7.3,5.9-8.5c2.7-0.8,5.4-1.6,8.2-2.2
		c6.8-1.6,13.8-2.5,20.7-3.2c7.4-0.7,14.9-0.9,22.2-0.7c18.3,0.5,36.3,3.2,53.7,9.2c7.1,2.5,13.9,5.5,20.4,9.3
		c2.3,1.4,3.9,3.2,4.5,5.9C169.8,81,169.9,81.7,170,82.4z"/>
	<path fill-rule="evenodd" fill="#020203" d="M83.4,103.7c-10.9,0.1-22.1,1.4-33.1,4.7c-1.8,0.5-3.6,0.6-5.3-0.2
		c-2.9-1.2-4.7-4-4.6-7c0.1-3.1,2-5.8,5.1-6.8c3-0.9,6.2-1.8,9.4-2.5c7.8-1.7,15.6-2.6,23.5-3c17.1-0.7,33.7,1.5,50,6.8
		c8.2,2.6,16.1,6.1,23.5,10.5c0.3,0.3,0.8,0.4,1.1,0.7c3.9,2.4,4.3,7.1,2.5,10.1c-2.1,3.5-6.5,4.6-10.1,2.5c-2-1.2-4.1-2.4-6.2-3.5
		c-9.6-4.9-19.9-8.1-30.5-10.1C100.5,104.4,92.2,103.8,83.4,103.7z"/>
	<path fill-rule="evenodd" fill="#020203" d="M85.2,119.9c12.6,0.2,24.9,1.9,36.8,5.8c6.6,2.2,12.9,5.1,18.9,8.6
		c0.5,0.3,1,0.6,1.5,1c2.4,1.9,3,5.2,1.5,7.8c-1.5,2.5-4.7,3.6-7.4,2.4c-0.5-0.3-1.1-0.6-1.6-0.8c-10.1-6-21.1-9.7-32.6-11.5
		c-7.1-1.1-14.3-1.4-21.5-1.2c-9.3,0.3-18.5,1.7-27.6,3.6c-0.9,0.2-1.9,0.4-2.8,0.4c-2.8,0-5.2-1.9-5.7-4.7
		c-0.5-2.9,0.9-5.6,3.6-6.6c0.6-0.3,1.2-0.3,1.7-0.5c7.4-1.7,15-3,22.5-3.6C76.6,120.2,80.9,120.1,85.2,119.9z"/>
</g>
</svg>
