<?xml version="1.0" encoding="utf-8"?>
<!-- Generator: Adobe Illustrator 25.2.0, SVG Export Plug-In . SVG Version: 6.00 Build 0)  -->
<svg version="1.2" baseProfile="tiny" id="Layer_1" xmlns="http://www.w3.org/2000/svg" xmlns:xlink="http://www.w3.org/1999/xlink"
	 x="0px" y="0px" viewBox="0 0 200 200" overflow="visible" xml:space="preserve">
<g id="linkedin_00000099648945049483378380000008230449884086423485_">
	<path fill="#2465AF" d="M155.6,0H44.2C19.8,0,0,19.8,0,44.2v111.5C0,180.1,19.8,200,44.3,200h111.4c24.4,0,44.3-19.8,44.3-44.3
		V44.2C199.9,19.8,180.1,0,155.6,0z"/>
	<g id="logo_00000096751149879270953810000005796642061712693933_">
		<rect x="38.1" y="78.6" fill="#FFFFFF" width="26.5" height="85.2"/>
		<path fill="#FFFFFF" d="M163.8,110.1v53.7h-26.5v-42.2c0.1-2.6,0.2-5,0-7.1c-0.7-10.4-5-16-14.1-16c-2.4,0.1-4.7,0.6-6.6,1.6
			c-5.7,2.7-9.3,9.1-9.6,21.5v42.2H80.5V78.6h25.5l0.3,10.8c7.6-9.2,17.4-14.7,31.1-13.8C156.6,78.7,163.3,91.9,163.8,110.1z"/>
		<ellipse fill="#FFFFFF" cx="51.4" cy="51.5" rx="15.3" ry="15.3"/>
	</g>
</g>
</svg>
