<?xml version="1.0" encoding="utf-8"?>
<!-- Generator: Adobe Illustrator 25.2.0, SVG Export Plug-In . SVG Version: 6.00 Build 0)  -->
<svg version="1.2" baseProfile="tiny" id="Mono-Icon"
	 xmlns="http://www.w3.org/2000/svg" xmlns:xlink="http://www.w3.org/1999/xlink" x="0px" y="0px" viewBox="0 0 60 60"
	 overflow="visible" xml:space="preserve">
<path fill="#FFFFFF" d="M51.2,48.3c-1.6-7.9-7-14.3-14-17c-2.1,1.2-4.6,2-7.2,2s-5.1-0.8-7.2-2c-7,2.7-12.4,9.1-14,17
	c-0.3,1.3-1,4.2,2.8,4.2h36.7C52.2,52.5,51.5,49.5,51.2,48.3z M29.9,30.1c6.2,0,11.3-5,11.3-11.3c0-6.2-5-11.3-11.3-11.3
	c-6.2,0-11.3,5-11.3,11.3C18.7,25,23.7,30.1,29.9,30.1z"/>
</svg>
