<?xml version="1.0" encoding="utf-8"?>
<!-- Generator: Adobe Illustrator 25.2.0, SVG Export Plug-In . SVG Version: 6.00 Build 0)  -->
<svg version="1.2" baseProfile="tiny" id="Livello_1"
	 xmlns="http://www.w3.org/2000/svg" xmlns:xlink="http://www.w3.org/1999/xlink" x="0px" y="0px" viewBox="0 0 215.6 272"
	 overflow="visible" xml:space="preserve">
<g>
	<path fill-rule="evenodd" fill="#FFFFFF" d="M134.9,27.2c0.7-8.5-6.3-15.5-14.3-15.5c-8.7,0-74.1,6.1-74.1,6.1l-33,189.1
		c0,0,75.1-7.4,80.1-8.1c4-0.5,11.4-0.3,13.3-10.1C108.8,179,134.3,34.9,134.9,27.2z M87.7,22.9c0,0,6.7,2.1,5.5,9.8
		c-1.2,7.7-26.5,153.7-26.5,153.7l-8,5.3L87.7,22.9z"/>
	<path fill-rule="evenodd" fill="#FFFFFF" d="M132.9,10c0,0,25.9-2.6,35-2.7c8.4-0.1,15.8,7.1,15.3,15.6
		c-0.5,8.2-27.5,159.4-27.5,159.4l8-5.3c0,0,4.1-23.6,8-46.7l38,16.4c-3,16.9-5.2,29.6-5.7,32.2c-1.9,9.8-9.3,9.9-13.3,10.3
		c-4,0.4-79.1,7.9-79.1,7.9s20.9-116.2,29.1-166.5C143,16.5,132.9,10,132.9,10z"/>
	<g>
		<path fill="#FFFFFF" d="M46.8,234.3l16.4-1.6l-3.4,22.3c-7.1,4.6-18.2,8.6-26.4,9.4c-18.2,1.7-29.6-8.8-27.1-24.9
			c2.5-16,18-29,36.9-30.8c9-0.9,18.3,1.5,23.7,6l-12.7,13.3c-3.3-3.1-8.6-4.8-13.4-4.4c-7.4,0.7-13.7,6.6-14.8,14
			c-1.2,7.5,3.5,12.4,11.1,11.7c2-0.2,4.9-1.1,7.9-2.5L46.8,234.3z"/>
		<path fill="#FFFFFF" d="M103.9,240.4l-2.6,16.8l-19.2,1.8l2.5-16.5l-15.3-35.7l19.1-1.8l8.4,19.8l14.4-21.9l19.1-1.8L103.9,240.4z
			"/>
		<path fill="#FFFFFF" d="M153.9,198.9l8.3,27.1l17-29.5l20.2-1.9l-8.3,54.2l-16.7,1.6l4.6-29.7L165.3,246l-12.6,1.2l-6.2-23.5
			l-4.6,29.7l-16.7,1.6l8.3-54.2L153.9,198.9z"/>
	</g>
</g>
</svg>
